<svg width="18" height="32" viewBox="0 0 18 32" fill="none" xmlns="http://www.w3.org/2000/svg">
<path d="M16.3637 26.0642V24.9424C16.3637 23.1555 15.497 21.549 14.1022 20.7497L11.4545 19.2328V13.5671C11.4545 12.0734 10.8485 10.7057 9.83452 9.83025C9.88743 9.50018 10.0636 9.22255 10.2927 9.13524C11.9667 8.49699 13.0908 6.70942 13.0908 4.68692C13.0908 1.78972 10.8317 -0.4051 8.31863 0.0631515C6.37523 0.424903 4.90897 2.49941 4.90897 4.8876V8.05636C2.86973 10.5287 1.63632 13.8786 1.63632 17.4901V22.7853C1.63632 24.1887 1.97788 25.5317 2.61539 26.6904C1.08657 27.3699 0 29.0737 0 31.0625V32H15.5453C16.8986 32 18 30.7381 18 29.1875C18.0005 28.5457 17.8485 27.9158 17.5602 27.3656C17.2719 26.8153 16.8582 26.3654 16.3637 26.0642ZM13.5289 22.5261C14.2723 23.0317 14.7271 23.9399 14.7271 24.9424V25.3867L12.8737 24.6787L13.5289 22.5261ZM6.54551 4.8876C6.54551 3.40885 7.42078 2.13003 8.58154 1.91372C10.1516 1.62078 11.4545 3.00529 11.4545 4.68692C11.4551 5.27754 11.2933 5.85336 10.992 6.33257C10.6907 6.81179 10.2653 7.17002 9.77616 7.35636C9.13036 7.60249 8.62839 8.17574 8.37165 8.90399L6.54551 7.85761V4.8876ZM3.27265 17.4901C3.27265 14.5454 4.20333 11.7639 5.90462 9.58712L8.46116 11.0515C9.2983 11.5307 9.81816 12.4953 9.81816 13.5671V20.3915L12.0551 21.6735L11.3213 24.0862L8.18178 22.8867V14.0623H6.54546V24.238L9.02384 25.1848C7.93257 26.573 6.20499 27.1318 4.59431 26.5169L4.54249 26.4969C3.72264 25.4835 3.27265 24.1747 3.27265 22.7853V17.4901ZM15.5453 30.125H1.7765C2.10104 29.0756 2.95476 28.3112 3.96809 28.2537C4.04074 28.2747 4.80817 28.6406 5.92698 28.6406C7.79277 28.6406 9.57484 27.6081 10.6745 25.815L15.3708 27.6086C15.6601 27.7188 15.9117 27.9307 16.0899 28.2141C16.2682 28.4976 16.364 28.8381 16.3637 29.1875C16.3637 29.7044 15.9966 30.125 15.5453 30.125Z" fill="#9E9E9E"/>
</svg>
