<svg width="28" height="30" viewBox="0 0 28 30" fill="none" xmlns="http://www.w3.org/2000/svg">
<path d="M27.6783 0H26.8674C25.544 0 24.3665 0.674121 23.626 1.71387H23.6239C22.2988 1.71387 21.1204 2.38913 20.3803 3.43059V3.42773C18.1444 3.42773 16.3259 5.35001 16.3259 7.7124V11.8341L13.8391 14.4257L11.3524 11.8341V7.7124C11.3524 5.35001 9.53388 3.42773 7.29799 3.42773V3.43059C6.55786 2.38913 5.37954 1.71387 4.05444 1.71387H4.05228C3.31183 0.674121 2.13426 0 0.810888 0H0V13.4608L5.74546 20.6807H4.86533V29.25H22.813V20.6807H21.9328L27.6783 13.4608V0ZM9.73065 7.7124V10.3095C9.2359 9.99398 8.68287 9.7943 8.10888 9.72391V5.99854C8.10888 5.74945 8.08736 5.50494 8.04887 5.26728C9.02372 5.60263 9.73065 6.57154 9.73065 7.7124ZM4.86533 3.57456C5.8092 3.9283 6.4871 4.88115 6.4871 5.99854V9.86725C6.10104 9.98675 5.73406 10.1666 5.39835 10.4008L4.86533 9.83817V3.57456ZM13.0283 27.5361H6.4871V22.3945H13.0283V27.5361ZM13.0283 20.6807H7.86453L1.62178 12.8364V1.86075C2.56565 2.21432 3.24355 3.16723 3.24355 4.28467V10.5483L8.3462 15.9407L9.49333 14.729L6.58489 11.6554C6.90817 11.4914 7.26442 11.4052 7.63375 11.4052C8.28354 11.4052 8.89441 11.6726 9.35391 12.1582L13.0283 15.9876V20.6807ZM21.1912 5.99854C21.1912 4.88115 21.8691 3.9283 22.813 3.57456V9.83817L22.2799 10.4008C21.9442 10.1666 21.5773 9.98675 21.1912 9.86725V5.99854ZM17.9476 7.7124C17.9476 6.5716 18.6546 5.60263 19.6294 5.26728C19.5899 5.50881 19.5699 5.75343 19.5694 5.99854V9.72391C18.9954 9.7943 18.4424 9.99398 17.9476 10.3095V7.7124ZM21.1912 27.5361H14.65V22.3945H21.1912V27.5361ZM26.0565 12.8364L19.8138 20.6807H14.65V15.9876L18.3244 12.1582C18.7839 11.6726 19.3948 11.4052 20.0445 11.4052C20.4139 11.4052 20.7701 11.4914 21.0934 11.6554L18.185 14.729L19.332 15.9407L24.4347 10.5483V4.28467C24.4347 3.16728 25.1126 2.21443 26.0565 1.86069V12.8364Z" fill="#9E9E9E"/>
</svg>
