<svg width="37" height="33" viewBox="0 0 37 33" fill="none" xmlns="http://www.w3.org/2000/svg">
<path d="M1.27809 19.6488H4.29187V31.7039C4.29187 32.4143 4.8731 32.9955 5.58349 32.9955H14.4095C15.1199 32.9955 15.7011 32.4143 15.7011 31.7039V22.8778H21.0828V31.7039C21.0828 32.4143 21.6641 32.9955 22.3745 32.9955H30.7699C31.4803 32.9955 32.0616 32.4143 32.0616 31.7039V19.6488H35.7211C36.2378 19.6488 36.7114 19.3259 36.9051 18.8523C37.0988 18.3788 36.9912 17.8191 36.6253 17.4531L19.7912 0.382284C19.2961 -0.11286 18.4781 -0.134362 17.983 0.360782L0.395534 17.4316C0.00805029 17.7976 -0.0996095 18.3572 0.0941325 18.8523C0.287874 19.3474 0.76144 19.6488 1.27809 19.6488ZM18.844 3.11617L32.6212 17.0656H30.7699C30.0595 17.0656 29.4783 17.6468 29.4783 18.3572V30.4123H23.666V21.5862C23.666 20.8758 23.0848 20.2946 22.3744 20.2946H14.4095C13.6991 20.2946 13.1179 20.8758 13.1179 21.5862V30.4123H6.8751V18.3572C6.8751 17.6468 6.29387 17.0656 5.58349 17.0656H4.46411L18.844 3.11617Z" fill="#9E9E9E"/>
</svg>
