<svg width="39" height="38" viewBox="0 0 39 38" fill="none" xmlns="http://www.w3.org/2000/svg">
<g clip-path="url(#clip0_2428_251)">
<path d="M19.5 0C8.73043 0 0 8.50657 0 19C0 29.4934 8.73043 38 19.5 38C30.2696 38 39 29.4934 39 19C39 8.50657 30.2696 0 19.5 0ZM19.5 35.2857C10.2695 35.2857 2.78571 27.9938 2.78571 19C2.78571 10.0062 10.2695 2.71429 19.5 2.71429C28.7305 2.71429 36.2143 10.0062 36.2143 19C36.2143 27.9938 28.7305 35.2857 19.5 35.2857Z" fill="#9E9E9E"/>
<path d="M8.6665 29.5544C8.6665 29.5544 20.9766 25.2347 23.4391 22.8379C25.9017 20.4385 30.3324 8.44409 30.3324 8.44409C30.3324 8.44409 18.0223 12.7639 15.5611 15.1619C13.1 17.56 8.6665 29.5544 8.6665 29.5544ZM17.5306 17.0809L21.4696 20.9189C22.4544 21.8784 12.6069 25.7164 12.6069 25.7164C12.6069 25.7164 16.5459 16.1214 17.5306 17.0809Z" fill="#9E9E9E"/>
</g>
<defs>
<clipPath id="clip0_2428_251">
<rect width="39" height="38" fill="white"/>
</clipPath>
</defs>
</svg>
